<svg id="shoes" enable-background="new 0 0 300 300" height="512" viewBox="0 0 300 300" width="512" xmlns="http://www.w3.org/2000/svg"><g><path d="m146.483 85.94 1.133-7.92c.313-2.188-1.207-4.213-3.394-4.525-2.188-.295-4.215 1.209-4.527 3.392l-1.131 7.92c-.315 2.188 1.205 4.213 3.392 4.525.191.028.383.041.57.041 1.961 0 3.672-1.439 3.957-3.433z"/><path d="m142.659 112.713 1.914-13.386c.312-2.188-1.207-4.213-3.394-4.526-2.192-.314-4.215 1.207-4.526 3.393l-1.912 13.386c-.312 2.188 1.207 4.213 3.392 4.526.194.027.383.041.572.041 1.958-.001 3.669-1.44 3.954-3.434z"/><path d="m132.827 124.969-1.131 7.92c-.313 2.186 1.207 4.213 3.394 4.523.191.028.381.041.57.041 1.957 0 3.67-1.44 3.953-3.436l1.131-7.92c.312-2.186-1.207-4.213-3.395-4.523-2.173-.324-4.214 1.205-4.522 3.395z"/><path d="m161.354 89.332c2.188-.312 3.707-2.338 3.394-4.525l-1.133-7.92c-.312-2.184-2.352-3.705-4.527-3.392-2.188.312-3.707 2.338-3.394 4.525l1.133 7.92c.285 1.994 1.996 3.434 3.957 3.434.187-.001.379-.014.57-.042z"/><path d="m164.608 116.146c.188 0 .379-.014.57-.041 2.187-.312 3.707-2.338 3.394-4.526l-1.914-13.386c-.312-2.186-2.352-3.705-4.528-3.393-2.187.312-3.707 2.338-3.394 4.526l1.914 13.386c.286 1.995 1.997 3.434 3.958 3.434z"/><path d="m167.651 137.453c.188 0 .379-.014.57-.041 2.188-.312 3.707-2.338 3.394-4.525l-1.133-7.92c-.312-2.186-2.348-3.713-4.527-3.392-2.188.312-3.707 2.338-3.394 4.525l1.133 7.92c.285 1.994 1.996 3.433 3.957 3.433z"/><path d="m173.772 73.924c-1.949 1.039-2.688 3.463-1.644 5.412l3.766 7.059c.719 1.35 2.102 2.117 3.531 2.117.633 0 1.277-.15 1.879-.47 1.949-1.039 2.688-3.463 1.644-5.412l-3.766-7.058c-1.035-1.949-3.445-2.693-5.41-1.648z"/><path d="m192.202 116.984c.723 1.35 2.106 2.117 3.535 2.117.633 0 1.277-.15 1.879-.471 1.949-1.039 2.688-3.463 1.648-5.412l-8.156-15.295c-1.043-1.949-3.457-2.688-5.414-1.646-1.949 1.039-2.688 3.463-1.648 5.412z"/><path d="m202.006 126.865c-1.949 1.039-2.688 3.463-1.644 5.412l3.766 7.058c.719 1.35 2.102 2.117 3.531 2.117.633 0 1.277-.15 1.879-.471 1.949-1.039 2.688-3.463 1.644-5.412l-3.766-7.059c-1.038-1.948-3.449-2.688-5.41-1.645z"/><path d="m122.006 88.041c.6.32 1.244.47 1.879.47 1.43 0 2.812-.767 3.533-2.117l3.766-7.059c1.039-1.949.303-4.373-1.646-5.412-1.955-1.043-4.373-.303-5.412 1.646l-3.766 7.058c-1.039 1.951-.303 4.375 1.646 5.414z"/><path d="m105.694 118.631c.6.32 1.244.471 1.879.471 1.43 0 2.814-.768 3.533-2.117l8.156-15.295c1.039-1.949.302-4.373-1.647-5.412-1.957-1.043-4.375-.303-5.412 1.646l-8.156 15.295c-1.039 1.949-.302 4.373 1.647 5.412z"/><path d="m93.772 140.982c.6.32 1.244.471 1.879.471 1.43 0 2.812-.768 3.533-2.117l3.766-7.058c1.039-1.949.303-4.373-1.646-5.412-1.957-1.045-4.373-.304-5.412 1.646l-3.766 7.059c-1.04 1.949-.303 4.373 1.646 5.411z"/><path d="m131.655 65.453h40c1.734 0 3.27-1.115 3.805-2.764.535-1.648-.051-3.455-1.453-4.473l-18.352-13.328v-7.436c0-2.209-1.789-4-4-4s-4 1.791-4 4v7.436l-18.35 13.328c-1.402 1.018-1.99 2.824-1.455 4.473s2.072 2.764 3.805 2.764zm20-13.582 7.684 5.582h-15.367z"/><path d="m41.754 80.973 11.834 6.39 6.555 12.006c.701 1.283 2.045 2.082 3.506 2.084h.006c1.459 0 2.803-.795 3.506-2.074l6.56-11.937 11.852-6.479c1.289-.705 2.088-2.056 2.082-3.525s-.814-2.814-2.109-3.51l-11.902-6.385-6.469-11.988c-.695-1.291-2.043-2.098-3.51-2.102-.004 0-.006 0-.01 0-1.463 0-2.81.799-3.512 2.084l-6.555 12.006-11.834 6.39c-1.293.697-2.1 2.049-2.1 3.52s.808 2.823 2.1 3.52zm16.678-6.953c.68-.367 1.24-.924 1.612-1.604l3.59-6.578 3.541 6.56c.371.692.938 1.256 1.629 1.627l6.451 3.461-6.394 3.496c-.67.365-1.221.914-1.588 1.584l-3.606 6.561-3.623-6.637c-.371-.68-.932-1.236-1.612-1.604l-6.359-3.434z"/><path d="m261.444 185.818c-1.606-1.604-4.84-3.615-15.684-4.941-3.32-.404-7.129-.719-11.32-.936-10.168-.531-20.102-2.623-29.524-6.217-12.266-4.68-25.465-10.852-36.066-15.811-14.43-6.748-18.363-8.461-20.848-8.461-6.102 0-8.652 4.768-8.988 8.244-2.244 6.264-6.484 9.426-9.684 10.981-4.791 2.33-10.6 2.762-15.174 1.121-8.096-2.904-15.705-14.17-17.953-18.268-1.033-1.883-3.373-2.617-5.297-1.656-10.078 5.039-11.877 17.572-12.197 22.072-5.641 6.766-6.662 17.426-6.281 26.38-.768-.156-1.556-.272-2.272-.529-8.096-2.904-15.705-14.17-17.953-18.268-1.033-1.881-3.373-2.615-5.297-1.656-10.012 5.006-11.854 17.385-12.192 21.955-6.674 8-6.943 21.406-5.93 31.488.338 3.373 1.639 6.487 3.613 8.977l-.826 1.652c-2.266 4.531-1.867 9.942 1.014 13.785 1.758 2.344 5.108 5.139 11.082 5.139 1.906 0 7.047.535 13.555 1.213 16.057 1.674 42.812 4.463 69.494 4.463 16.602 0 33.176-1.08 47.125-4.18 16.211-3.602 28.93-7.514 37.808-11.627 6.071-2.813 9.25-9.484 7.706-15.97.218-.298.423-.596.604-.892 15.186-3.466 27.208-7.209 35.686-11.138 6.127-2.838 9.245-9.453 7.697-15.952.872-1.186 1.449-2.368 1.811-3.419 2.668-7.779-2.602-16.025-3.211-16.94-.143-.216-.311-.421-.498-.609zm-3.864 14.971c-.64 1.844-2.359 3.211-5.258 4.176-2.41.803-4.949 1.732-7.613 2.707-7.773 2.846-16.556 5.982-26.297 7.512-.217-.364-.388-.632-.469-.754-.145-.218-.313-.424-.5-.611-.978-.977-2.587-2.104-6.126-3.137 4.818-4.029 9.382-6.854 13.368-8.184 4.547-1.518 8.606-2.713 12.055-3.558 5.008-1.23 9.082-4.789 11.168-9.686 5.203.832 7.09 1.724 7.664 2.074 1.141 1.938 3.106 6.305 2.008 9.461zm-53.696 16.467c5.192.83 7.113 1.722 7.689 2.072 1.072 1.821 2.84 5.778 2.14 8.869-.336.483-.574 1.023-.672 1.613-.859 1.331-2.391 2.38-4.718 3.154-2.406.803-4.942 1.73-7.602 2.705-10.912 3.993-24.138 8.766-39.292 8.414 5.333-5.361 12.358-11.288 19.256-13.586 4.547-1.518 8.606-2.713 12.055-3.558 5.005-1.228 9.055-4.794 11.144-9.683zm-112.331-58.026c3.572 5.395 10.875 14.862 19.904 18.1 6.525 2.344 14.709 1.78 21.369-1.457 6.687-3.248 11.508-8.826 13.941-16.127.117-.348.188-.816.207-1.184.051-1.109.461-1.109.785-1.123 1.812.291 10.254 4.238 17.699 7.721 2.068.967 4.257 1.988 6.496 3.027l-3.351 5.7c-1.117 1.904-.484 4.356 1.422 5.475.637.375 1.336.552 2.023.552 1.371 0 2.707-.705 3.453-1.972l3.761-6.397c1.907.866 3.845 1.731 5.8 2.594l-3.624 6.168c-1.117 1.904-.48 4.355 1.422 5.474.636.373 1.336.551 2.023.551 1.371 0 2.707-.705 3.453-1.974l4.125-7.022c3.215 1.351 6.434 2.653 9.602 3.861 10.203 3.895 20.953 6.16 31.961 6.732 1.811.094 3.516.212 5.16.342-1.142 1.416-2.618 2.472-4.352 2.898-3.656.894-7.926 2.154-12.68 3.738-6.305 2.103-13.192 6.689-20.469 13.631-.095.09-.132.212-.215.308-3.256-.388-6.953-.695-11.031-.906-10.168-.531-20.102-2.623-29.524-6.217-12.262-4.68-25.457-10.85-36.058-15.809-14.436-6.75-18.369-8.463-20.856-8.463-2.317 0-4.117.691-5.483 1.734-3.632-2.748-7.558-5.354-11.713-7.805.333-3.036 1.373-8.575 4.75-12.15zm-11.122 39.03c-.274-5.996.072-14.167 3.209-19.461 3.961 2.382 7.668 4.917 11.09 7.575-2.301 5.797-6.32 8.809-9.399 10.304-1.55.754-3.214 1.232-4.9 1.582zm-32.88-11.033c3.572 5.394 10.877 14.865 19.906 18.103 6.525 2.344 14.713 1.783 21.369-1.457 6.687-3.248 11.508-8.826 13.943-16.127.115-.348.186-.816.203-1.184.01-.221.044-.37.079-.511.021-.064.038-.126.056-.191.159-.388.424-.411.652-.42 1.814.291 10.258 4.24 17.709 7.724 2.065.966 4.251 1.986 6.486 3.024l-3.349 5.701c-1.119 1.904-.482 4.356 1.424 5.474.634.373 1.334.551 2.021.551 1.371 0 2.707-.705 3.453-1.974l3.757-6.396c1.908.866 3.846 1.732 5.802 2.595l-3.624 6.168c-1.119 1.904-.482 4.355 1.424 5.474.635.373 1.334.551 2.022.551 1.371 0 2.707-.705 3.453-1.974l4.125-7.021c3.215 1.351 6.434 2.653 9.602 3.861 10.203 3.895 20.953 6.16 31.961 6.732 1.811.094 3.516.212 5.16.342-1.142 1.416-2.618 2.472-4.352 2.898-3.656.896-7.926 2.154-12.68 3.738-10.585 3.529-20.836 13.532-26.801 20.202-.439-.074-.872-.128-1.316-.218-8.79-1.758-42.278-3.107-70.222-4.009-6.671-19.003-25.02-32.534-37.002-39.633.34-3.046 1.39-8.492 4.739-12.023zm-10.805 43.293c-1.05-10.445.036-18.843 2.946-23.809 10.295 6.222 24.972 17.184 31.428 31.901-6.495-.198-12.467-.369-17.453-.512-5.506-.156-10.336-.295-11.736-.359-2.78-.981-4.845-3.831-5.185-7.221zm171.542 12.962c-8.359 3.871-20.531 7.598-36.18 11.076-35.104 7.797-88.43 2.238-114.057-.43-7.262-.758-12.06-1.258-14.383-1.258-2.894 0-4.058-1.108-4.682-1.938-1.08-1.439-1.182-3.562-.258-5.408l.208-.417c.378.146.744.319 1.136.432.668.193.668.193 13.367.556 25.078.717 83.806 2.397 95.023 4.639 1.293.26 2.567.451 3.836.637 3.742.549 7.367.791 10.875.791 15.762 0 29.144-4.9 40.297-8.982 2.582-.945 5.043-1.848 7.383-2.627.153-.051.276-.114.425-.168-.526 1.268-1.498 2.406-2.99 3.097zm44-28c-7.314 3.387-17.545 6.663-30.47 9.759-.074-.849-.19-1.683-.364-2.479 9.734-1.73 18.358-4.777 26.01-7.579 2.586-.947 5.047-1.85 7.391-2.629.151-.05.273-.113.42-.165-.527 1.261-1.485 2.397-2.987 3.093z"/><path d="m247.655 149.552c2.264 0 4.099-1.835 4.099-4.099s-1.835-4.099-4.099-4.099-4.099 1.835-4.099 4.099 1.835 4.099 4.099 4.099z"/><path d="m259.655 89.453c-6.617 0-12 5.383-12 12s5.383 12 12 12 12-5.383 12-12-5.383-12-12-12zm0 16c-2.207 0-4-1.795-4-4s1.793-4 4-4 4 1.795 4 4-1.793 4-4 4z"/><path d="m215.655 48.965c2.211 0 4-1.791 4-4v-5.66c0-2.209-1.789-4-4-4s-4 1.791-4 4v5.66c0 2.209 1.789 4 4 4z"/><path d="m215.655 71.602c2.211 0 4-1.791 4-4v-5.66c0-2.209-1.789-4-4-4s-4 1.791-4 4v5.66c0 2.209 1.789 4 4 4z"/><path d="m201.506 57.453h5.66c2.211 0 4-1.791 4-4s-1.789-4-4-4h-5.66c-2.211 0-4 1.791-4 4s1.79 4 4 4z"/><path d="m224.143 57.453h5.66c2.211 0 4-1.791 4-4s-1.789-4-4-4h-5.66c-2.211 0-4 1.791-4 4s1.789 4 4 4z"/></g></svg>